# Blender v2.80 (sub 35) OBJ File: 'LevelArchitecture.blend'
# www.blender.org
mtllib WallsGate3EndWall.mtl
o EndWall_Cube.007
v 0.497646 3.771436 -0.000000
v 0.497646 4.000000 -0.000000
v 0.607052 3.510174 -0.000000
v 0.835642 0.000000 -0.587996
v 0.708894 2.001599 -0.461247
v 0.000000 1.951960 0.461393
v 0.000000 0.754287 0.461393
v 0.000000 3.771436 0.250000
v 0.000000 0.000000 0.587996
v 0.000000 4.000000 0.250000
v 0.000000 3.510174 0.359406
v 0.000000 2.755885 0.461247
v 0.000000 2.001599 0.461247
v 0.000000 2.755886 0.359406
v 0.000000 2.755886 0.393353
v 0.000000 2.755885 0.427300
v 0.000000 2.745024 0.393353
v 0.000000 2.745023 0.427300
v 0.000000 1.951960 0.443262
v 0.000000 2.001599 0.443116
v 0.000000 2.755885 0.444273
v 0.709039 1.951960 0.461393
v 0.709039 0.754287 0.461393
v 0.607053 3.510174 0.359406
v 0.708894 2.755885 0.461247
v 0.607053 2.755886 0.359406
v 0.641000 2.755886 0.393353
v 0.641000 2.745024 0.393353
v 0.691920 2.755885 0.444273
v 0.709039 1.951960 0.000000
v 0.709039 0.754287 0.000000
v 0.835642 0.000000 0.000000
v 0.708893 2.755885 0.000000
v 0.708893 2.001599 0.000000
v 0.607052 2.755886 0.000000
v 0.640999 2.755886 0.000000
v 0.674946 2.755885 0.000000
v 0.640999 2.745024 0.000000
v 0.674946 2.745023 0.000000
v 0.690908 1.951960 0.000000
v 0.690763 2.001599 0.000000
v 0.691919 2.755885 0.000000
v 0.497646 3.771436 0.250000
v 0.835642 0.000000 0.587996
v 0.497646 4.000000 0.250000
v 0.708893 2.001599 0.461247
v 0.674946 2.755885 0.427300
v 0.674946 2.745023 0.427300
v 0.690908 1.951960 0.443262
v 0.690763 2.001599 0.443116
v -0.000000 1.951960 -0.461393
v -0.000000 0.754287 -0.461393
v -0.000000 3.771436 -0.250000
v 0.000000 4.000000 0.000000
v -0.000000 0.000000 -0.587996
v -0.000000 4.000000 -0.250000
v -0.000000 3.510174 -0.359406
v -0.000000 2.755885 -0.461247
v -0.000000 2.001599 -0.461247
v -0.000000 2.755886 -0.359406
v -0.000000 2.755886 -0.393353
v -0.000000 2.755885 -0.427300
v -0.000000 2.745024 -0.393353
v -0.000000 2.745023 -0.427300
v -0.000000 1.951960 -0.443262
v -0.000000 2.001599 -0.443116
v -0.000000 2.755885 -0.444273
v 0.709039 1.951960 -0.461393
v 0.709039 0.754287 -0.461393
v 0.497646 3.771436 -0.250000
v 0.497646 4.000000 -0.250000
v 0.607053 3.510174 -0.359406
v 0.708894 2.755885 -0.461247
v 0.607053 2.755886 -0.359406
v 0.641000 2.755886 -0.393353
v 0.674947 2.755885 -0.427300
v 0.641000 2.745024 -0.393353
v 0.674947 2.745023 -0.427300
v 0.690908 1.951960 -0.443262
v 0.690763 2.001599 -0.443116
v 0.691920 2.755885 -0.444273
v 0.362558 4.000000 -0.114912
v 0.362602 4.000000 0.114956
v 0.362580 4.000000 -0.000000
v 0.000000 4.000000 0.113211
v -0.000000 4.000000 -0.115571
vt -0.417324 1.910608
vt -0.417324 1.924519
vt -0.076189 1.924519
vt -0.062230 1.910607
vt 0.608843 0.324903
vt 0.608843 0.286818
vt 0.950091 0.286818
vt 0.949979 0.324903
vt -0.417324 1.936653
vt -0.417324 1.923632
vt -0.075298 1.923631
vt -0.088365 1.936652
vt -0.417324 1.988744
vt -0.417324 1.962698
vt -0.114499 1.962698
vt -0.140633 1.988743
vt 0.608843 0.903621
vt 0.608843 0.895287
vt 0.911668 0.895287
vt 0.911668 0.903621
vt -0.417324 1.910608
vt -0.062230 1.910607
vt 0.608843 0.895286
vt 0.608843 0.903620
vt 0.937802 0.903620
vt 0.937802 0.895286
vt -0.772418 2.454496
vt -0.758460 2.454496
vt -0.758460 1.924519
vt -0.772418 1.910608
vt 0.800657 0.326248
vt 0.800657 0.288163
vt 0.268757 0.288163
vt 0.268869 0.326248
vt -0.746284 2.454496
vt -0.759351 2.454496
vt -0.759351 1.923631
vt -0.746284 1.936653
vt -0.694015 2.454496
vt -0.720149 2.454496
vt -0.720149 1.962698
vt -0.694015 1.988743
vt 1.521203 0.900496
vt 1.521203 0.892162
vt 1.027726 0.892162
vt 1.027726 0.900496
vt -0.772418 2.454496
vt -0.772418 1.910607
vt 1.521203 0.892162
vt 1.521203 0.900496
vt 1.001593 0.900496
vt 1.001593 0.892162
vt -0.417324 2.454496
vt -0.417324 2.176312
vt -0.328859 2.176328
vt -0.328351 2.454496
vt 0.267707 0.324903
vt 0.267595 0.286818
vt 0.306018 0.903621
vt 0.306018 0.895287
vt 0.279883 0.895286
vt 0.279883 0.903620
vt -0.062230 2.454496
vt -0.076188 2.454496
vt 1.521203 0.321779
vt 0.989416 0.321779
vt 0.989304 0.283694
vt 1.521203 0.283694
vt -0.088365 2.454496
vt -0.075298 2.454496
vt -0.140633 2.454496
vt -0.114499 2.454496
vt 1.521203 0.900496
vt 1.027726 0.900496
vt 1.027726 0.892162
vt 1.521203 0.892162
vt -0.062230 2.454496
vt 1.521203 0.892162
vt 1.001592 0.892162
vt 1.001592 0.900496
vt 1.521203 0.900496
vt -0.505824 2.176294
vt -0.609788 2.072684
vt -0.417324 2.072684
vt -0.504481 2.454496
vt -0.609788 2.454496
vt -0.224860 2.072684
vt -0.224860 2.454496
vt -0.417324 1.962698
vt -0.417324 1.936653
vt -0.088365 1.936652
vt -0.114499 1.962698
vt -0.417324 1.924406
vt -0.417324 1.910496
vt -0.062118 1.910496
vt -0.076076 1.924406
vt -0.720149 2.454496
vt -0.746284 2.454496
vt -0.746284 1.936653
vt -0.720149 1.962698
vt -0.758572 2.454496
vt -0.772530 2.454496
vt -0.772530 1.910496
vt -0.758572 1.924406
vt -0.114499 2.454496
vt -0.088365 2.454496
vt -0.076076 2.454496
vt -0.062118 2.454496
vt 0.608843 1.858151
vt 0.608843 1.682789
vt 0.801307 1.682789
vt 0.801307 1.858151
vt 0.608843 -0.632081
vt 0.608843 -1.210798
vt 1.061515 -1.210798
vt 0.964049 -0.632081
vt 0.608843 0.903620
vt 0.608843 0.324903
vt 0.963937 0.324903
vt 0.963937 0.903620
vt 0.608843 1.482338
vt 0.608843 0.903621
vt 0.885534 0.903621
vt 0.885534 1.482338
vt 0.608843 0.286818
vt 0.964049 0.286818
vt 0.800657 1.859496
vt 0.800657 1.684133
vt 0.417541 1.684133
vt 0.417541 1.859496
vt 0.800657 -0.630737
vt 0.800657 -1.209454
vt 0.157333 -1.209454
vt 0.254799 -0.630737
vt 0.800657 0.904964
vt 0.800657 0.326248
vt 0.254912 0.326248
vt 0.254911 0.904964
vt 0.800657 1.483683
vt 0.800657 0.904965
vt 0.333314 0.904965
vt 0.333314 1.483683
vt 0.800657 0.288163
vt 0.254799 0.288163
vt 0.416379 1.858151
vt 0.416379 1.682789
vt 0.253637 -0.632081
vt 0.156171 -1.210798
vt 0.253749 0.903620
vt 0.253749 0.324903
vt 0.332152 1.482338
vt 0.332152 0.903621
vt 0.253637 0.286818
vt 1.521203 1.855027
vt 1.138088 1.855027
vt 1.138088 1.679664
vt 1.521203 1.679664
vt 1.521203 -0.635206
vt 0.975346 -0.635206
vt 0.877880 -1.213923
vt 1.521203 -1.213923
vt 1.521203 0.900495
vt 0.975457 0.900495
vt 0.975457 0.321779
vt 1.521203 0.321779
vt 1.521203 1.479214
vt 1.053860 1.479214
vt 1.053860 0.900496
vt 1.521203 0.900496
vt 1.521203 0.283694
vt 0.975346 0.283694
vn 0.0000 -1.0000 -0.0000
vn 1.0000 0.0029 0.0000
vn 0.0000 1.0000 0.0000
vn 1.0000 0.0000 0.0000
vn -1.0000 0.0000 -0.0000
vn -0.0000 0.0029 1.0000
vn 0.0000 0.0000 1.0000
vn 0.0000 0.0000 -1.0000
vn 0.0000 0.0029 -1.0000
vn 0.9862 0.1655 0.0000
vn 0.9224 0.3863 0.0000
vn -0.0000 0.1655 0.9862
vn 0.0000 0.3863 0.9224
vn -0.0000 0.1655 -0.9862
vn 0.0000 0.3863 -0.9224
g EndWall_Cube.007_BaseMatWall01
usemtl BaseMatWall01
s off
f 34/1/1 41/2/1 80/3/1 5/4/1
f 41/5/2 40/6/2 79/7/2 80/8/2
f 37/9/3 42/10/3 81/11/3 76/12/3
f 35/13/3 36/14/3 75/15/3 74/16/3
f 36/17/4 38/18/4 77/19/4 75/20/4
f 42/10/3 33/21/3 73/22/3 81/11/3
f 39/23/5 37/24/5 76/25/5 78/26/5
f 13/27/1 20/28/1 50/29/1 46/30/1
f 20/31/6 19/32/6 49/33/6 50/34/6
f 16/35/3 21/36/3 29/37/3 47/38/3
f 14/39/3 15/40/3 27/41/3 26/42/3
f 15/43/7 17/44/7 28/45/7 27/46/7
f 21/36/3 12/47/3 25/48/3 29/37/3
f 18/49/8 16/50/8 47/51/8 48/52/8
f 54/53/3 84/54/3 82/55/3 86/56/3
f 34/1/1 46/30/1 50/29/1 41/2/1
f 41/5/2 50/57/2 49/58/2 40/6/2
f 37/9/3 47/38/3 29/37/3 42/10/3
f 35/13/3 26/42/3 27/41/3 36/14/3
f 36/17/4 27/59/4 28/60/4 38/18/4
f 42/10/3 29/37/3 25/48/3 33/21/3
f 39/23/5 48/61/5 47/62/5 37/24/5
f 59/63/1 5/4/1 80/3/1 66/64/1
f 66/65/9 80/66/9 79/67/9 65/68/9
f 62/69/3 76/12/3 81/11/3 67/70/3
f 60/71/3 74/16/3 75/15/3 61/72/3
f 61/73/8 75/74/8 77/75/8 63/76/8
f 67/70/3 81/11/3 73/22/3 58/77/3
f 64/78/7 78/79/7 76/80/7 62/81/7
f 84/54/3 83/82/3 45/83/3 2/84/3
f 83/82/3 85/85/3 10/86/3 45/83/3
f 82/55/3 84/54/3 2/84/3 71/87/3
f 86/56/3 82/55/3 71/87/3 56/88/3
f 84/54/3 54/53/3 85/85/3 83/82/3
g EndWall_Cube.007_OrangeEmissWall01
usemtl OrangeEmissWall01
f 38/89/3 39/90/3 78/91/3 77/92/3
f 40/93/3 30/94/3 68/95/3 79/96/3
f 17/97/3 18/98/3 48/99/3 28/100/3
f 19/101/3 6/102/3 22/103/3 49/104/3
f 38/89/3 28/100/3 48/99/3 39/90/3
f 40/93/3 49/104/3 22/103/3 30/94/3
f 63/105/3 77/92/3 78/91/3 64/106/3
f 65/107/3 79/96/3 68/95/3 51/108/3
g EndWall_Cube.007_TextureMatWall01
usemtl TextureMatWall01
f 2/109/4 1/110/4 70/111/4 71/112/4
f 31/113/10 32/114/10 4/115/10 69/116/10
f 33/117/4 34/118/4 5/119/4 73/120/4
f 3/121/4 35/122/4 74/123/4 72/124/4
f 30/125/4 31/113/4 69/116/4 68/126/4
f 1/110/11 3/121/11 72/124/11 70/111/11
f 10/127/7 8/128/7 43/129/7 45/130/7
f 7/131/12 9/132/12 44/133/12 23/134/12
f 12/135/7 13/136/7 46/137/7 25/138/7
f 11/139/7 14/140/7 26/141/7 24/142/7
f 6/143/7 7/131/7 23/134/7 22/144/7
f 8/128/13 11/139/13 24/142/13 43/129/13
f 2/109/4 45/145/4 43/146/4 1/110/4
f 31/113/10 23/147/10 44/148/10 32/114/10
f 33/117/4 25/149/4 46/150/4 34/118/4
f 3/121/4 24/151/4 26/152/4 35/122/4
f 30/125/4 22/153/4 23/147/4 31/113/4
f 1/110/11 43/146/11 24/151/11 3/121/11
f 56/154/8 71/155/8 70/156/8 53/157/8
f 52/158/14 69/159/14 4/160/14 55/161/14
f 58/162/8 73/163/8 5/164/8 59/165/8
f 57/166/8 72/167/8 74/168/8 60/169/8
f 51/170/8 68/171/8 69/159/8 52/158/8
f 53/157/15 70/156/15 72/167/15 57/166/15
