# This file uses centimeters as units for non-parametric coordinates.

mtllib ViewObj.mtl
g default
v 2.083200 0.265773 -0.223010
v 2.083200 0.060246 -0.341671
v 2.083200 -0.173471 -0.300460
v 2.083200 -0.326018 -0.118661
v 2.083200 -0.326018 0.118661
v 2.083200 -0.173471 0.300460
v 2.083200 0.060246 0.341671
v 2.083200 0.265773 0.223010
v 2.083200 0.346942 -0.000000
v 1.994987 0.531546 -0.446020
v 1.994987 0.120492 -0.683342
v 1.994987 -0.346942 -0.600921
v 1.994987 -0.652037 -0.237322
v 1.994987 -0.652037 0.237322
v 1.994987 -0.346942 0.600920
v 1.994987 0.120492 0.683342
v 1.994987 0.531545 0.446020
v 1.994987 0.693883 0.000000
v 1.808943 0.797318 -0.669029
v 1.808943 0.180738 -1.025012
v 1.808943 -0.520412 -0.901381
v 1.808943 -0.978055 -0.355983
v 1.808943 -0.978055 0.355983
v 1.808943 -0.520412 0.901381
v 1.808943 0.180737 1.025012
v 1.808943 0.797318 0.669029
v 1.808943 1.040825 0.000000
v 1.292102 0.683416 -0.573454
v 1.292102 0.154918 -0.878582
v 1.292102 -0.446068 -0.772612
v 1.292102 -0.838333 -0.305128
v 1.292102 -0.838333 0.305128
v 1.292102 -0.446068 0.772612
v 1.292102 0.154918 0.878582
v 1.292102 0.683415 0.573454
v 1.292102 0.892136 0.000000
v 0.775261 0.569513 -0.477878
v 0.775261 0.129098 -0.732152
v 0.775261 -0.371723 -0.643843
v 0.775261 -0.698611 -0.254274
v 0.775261 -0.698611 0.254274
v 0.775261 -0.371723 0.643843
v 0.775261 0.129098 0.732152
v 0.775261 0.569513 0.477878
v 0.775261 0.743446 0.000000
v 0.258420 0.455610 -0.382302
v 0.258420 0.103279 -0.585721
v 0.258420 -0.297378 -0.515075
v 0.258420 -0.558889 -0.203419
v 0.258420 -0.558889 0.203419
v 0.258420 -0.297379 0.515075
v 0.258420 0.103278 0.585721
v 0.258420 0.455610 0.382302
v 0.258420 0.594757 0.000000
v -0.258420 0.341708 -0.286727
v -0.258420 0.077459 -0.439291
v -0.258420 -0.223034 -0.386306
v -0.258420 -0.419167 -0.152564
v -0.258420 -0.419167 0.152564
v -0.258420 -0.223034 0.386306
v -0.258420 0.077459 0.439291
v -0.258420 0.341708 0.286727
v -0.258420 0.446068 0.000000
v -0.775261 0.227805 -0.191151
v -0.775261 0.051639 -0.292861
v -0.775261 -0.148689 -0.257537
v -0.775261 -0.279444 -0.101709
v -0.775261 -0.279444 0.101709
v -0.775261 -0.148689 0.257537
v -0.775261 0.051639 0.292861
v -0.775261 0.227805 0.191151
v -0.775261 0.297378 0.000000
v -1.292102 0.113903 -0.095576
v -1.292102 0.025820 -0.146430
v -1.292102 -0.074345 -0.128769
v -1.292102 -0.139722 -0.050855
v -1.292102 -0.139722 0.050855
v -1.292102 -0.074345 0.128769
v -1.292102 0.025820 0.146430
v -1.292102 0.113903 0.095576
v -1.292102 0.148689 0.000000
v 2.097317 -0.000000 -0.000000
v -1.808943 0.000000 0.000000
vt 0.563837 0.196434
vt 0.514471 0.167933
vt 0.458333 0.177831
vt 0.421692 0.221498
vt 0.421692 0.278502
vt 0.458333 0.322169
vt 0.514471 0.332067
vt 0.563837 0.303566
vt 0.583333 0.250000
vt 0.627674 0.142869
vt 0.528941 0.085865
vt 0.416667 0.105662
vt 0.343385 0.192997
vt 0.343385 0.307003
vt 0.416667 0.394338
vt 0.528941 0.414135
vt 0.627674 0.357131
vt 0.666667 0.250000
vt 0.691511 0.089303
vt 0.543412 0.003798
vt 0.375000 0.033494
vt 0.265077 0.164495
vt 0.265077 0.335505
vt 0.375000 0.466506
vt 0.543412 0.496202
vt 0.691511 0.410697
vt 0.750000 0.250000
vt 0.250000 0.500000
vt 0.305556 0.500000
vt 0.361111 0.500000
vt 0.416667 0.500000
vt 0.472222 0.500000
vt 0.527778 0.500000
vt 0.583333 0.500000
vt 0.638889 0.500000
vt 0.694445 0.500000
vt 0.750000 0.500000
vt 0.285714 0.571429
vt 0.333333 0.571429
vt 0.380952 0.571429
vt 0.428571 0.571429
vt 0.476190 0.571429
vt 0.523810 0.571429
vt 0.571429 0.571429
vt 0.619048 0.571429
vt 0.666667 0.571429
vt 0.714286 0.571429
vt 0.321429 0.642857
vt 0.361111 0.642857
vt 0.400794 0.642857
vt 0.440476 0.642857
vt 0.480159 0.642857
vt 0.519841 0.642857
vt 0.559524 0.642857
vt 0.599206 0.642857
vt 0.638889 0.642857
vt 0.678572 0.642857
vt 0.357143 0.714286
vt 0.388889 0.714286
vt 0.420635 0.714286
vt 0.452381 0.714286
vt 0.484127 0.714286
vt 0.515873 0.714286
vt 0.547619 0.714286
vt 0.579365 0.714286
vt 0.611111 0.714286
vt 0.642857 0.714286
vt 0.392857 0.785714
vt 0.416667 0.785714
vt 0.440476 0.785714
vt 0.464286 0.785714
vt 0.488095 0.785714
vt 0.511905 0.785714
vt 0.535714 0.785714
vt 0.559524 0.785714
vt 0.583333 0.785714
vt 0.607143 0.785714
vt 0.428571 0.857143
vt 0.444445 0.857143
vt 0.460318 0.857143
vt 0.476191 0.857143
vt 0.492064 0.857143
vt 0.507937 0.857143
vt 0.523810 0.857143
vt 0.539683 0.857143
vt 0.555556 0.857143
vt 0.571429 0.857143
vt 0.464286 0.928572
vt 0.472222 0.928572
vt 0.480159 0.928572
vt 0.488095 0.928572
vt 0.496032 0.928572
vt 0.503968 0.928572
vt 0.511905 0.928572
vt 0.519841 0.928572
vt 0.527778 0.928572
vt 0.535715 0.928572
vt 0.500000 0.250000
vt 0.500000 1.000000
vn 0.977317 0.162233 -0.136130
vn 0.977317 0.036775 -0.208563
vn 0.909688 0.072115 -0.408984
vn 0.909688 0.318133 -0.266945
vn 0.977317 -0.105890 -0.183407
vn 0.909688 -0.207646 -0.359654
vn 0.977317 -0.199008 -0.072433
vn 0.909688 -0.390248 -0.142039
vn 0.977317 -0.199008 0.072433
vn 0.909688 -0.390248 0.142039
vn 0.977317 -0.105890 0.183407
vn 0.909688 -0.207646 0.359654
vn 0.977317 0.036775 0.208563
vn 0.909688 0.072115 0.408984
vn 0.977317 0.162233 0.136130
vn 0.909688 0.318133 0.266945
vn 0.977317 0.211780 0.000000
vn 0.909688 0.415293 0.000000
vn 0.881287 0.082063 -0.465401
vn 0.881287 0.362018 -0.303769
vn 0.881287 -0.236290 -0.409267
vn 0.881287 -0.444081 -0.161632
vn 0.881287 -0.444081 0.161632
vn 0.881287 -0.236291 0.409267
vn 0.881287 0.082063 0.465401
vn 0.881287 0.362018 0.303769
vn 0.881287 0.472581 0.000000
vn -0.260971 0.482673 -0.836015
vn -0.260971 0.482673 -0.836015
vn -0.260971 0.482673 -0.836015
vn -0.260971 0.482673 -0.836015
vn -0.260971 -0.167631 -0.950681
vn -0.260971 -0.167631 -0.950681
vn -0.260971 -0.167631 -0.950681
vn -0.260971 -0.167631 -0.950681
vn -0.260971 -0.739498 -0.620513
vn -0.260971 -0.739498 -0.620513
vn -0.260971 -0.739498 -0.620513
vn -0.260971 -0.739498 -0.620513
vn -0.260971 -0.965347 -0.000000
vn -0.260971 -0.965347 -0.000000
vn -0.260971 -0.965347 -0.000000
vn -0.260971 -0.965347 -0.000000
vn -0.260971 -0.739498 0.620513
vn -0.260971 -0.739498 0.620513
vn -0.260971 -0.739498 0.620513
vn -0.260971 -0.739498 0.620513
vn -0.260971 -0.167631 0.950681
vn -0.260971 -0.167631 0.950681
vn -0.260971 -0.167631 0.950681
vn -0.260971 -0.167631 0.950681
vn -0.260971 0.482673 0.836015
vn -0.260971 0.482673 0.836015
vn -0.260971 0.482673 0.836015
vn -0.260971 0.482673 0.836015
vn -0.260971 0.907129 0.330168
vn -0.260971 0.907129 0.330168
vn -0.260971 0.907129 0.330168
vn -0.260971 0.907129 0.330168
vn -0.260971 0.907129 -0.330168
vn -0.260971 0.907129 -0.330168
vn -0.260971 0.907129 -0.330168
vn -0.260971 0.907129 -0.330168
vn -0.260971 0.482673 -0.836015
vn -0.260971 0.482673 -0.836015
vn -0.260971 -0.167631 -0.950681
vn -0.260971 -0.167631 -0.950681
vn -0.260971 -0.739498 -0.620513
vn -0.260971 -0.739498 -0.620513
vn -0.260971 -0.965347 -0.000000
vn -0.260971 -0.965347 -0.000000
vn -0.260971 -0.739498 0.620513
vn -0.260971 -0.739498 0.620513
vn -0.260971 -0.167631 0.950681
vn -0.260971 -0.167631 0.950681
vn -0.260971 0.482673 0.836015
vn -0.260971 0.482673 0.836015
vn -0.260971 0.907129 0.330168
vn -0.260971 0.907129 0.330168
vn -0.260971 0.907129 -0.330168
vn -0.260971 0.907129 -0.330168
vn -0.260971 0.482674 -0.836015
vn -0.260971 0.482674 -0.836015
vn -0.260971 -0.167631 -0.950681
vn -0.260971 -0.167631 -0.950681
vn -0.260971 -0.739498 -0.620513
vn -0.260971 -0.739498 -0.620513
vn -0.260971 -0.965347 -0.000000
vn -0.260971 -0.965347 -0.000000
vn -0.260971 -0.739498 0.620513
vn -0.260971 -0.739498 0.620513
vn -0.260971 -0.167631 0.950681
vn -0.260971 -0.167631 0.950681
vn -0.260971 0.482673 0.836015
vn -0.260971 0.482673 0.836015
vn -0.260971 0.907129 0.330168
vn -0.260971 0.907129 0.330168
vn -0.260971 0.907129 -0.330168
vn -0.260971 0.907129 -0.330168
vn -0.260971 0.482673 -0.836015
vn -0.260971 0.482673 -0.836015
vn -0.260971 -0.167631 -0.950681
vn -0.260971 -0.167631 -0.950681
vn -0.260971 -0.739498 -0.620513
vn -0.260971 -0.739498 -0.620513
vn -0.260971 -0.965347 -0.000000
vn -0.260971 -0.965347 -0.000000
vn -0.260971 -0.739498 0.620513
vn -0.260971 -0.739498 0.620513
vn -0.260971 -0.167631 0.950681
vn -0.260971 -0.167631 0.950681
vn -0.260971 0.482673 0.836015
vn -0.260971 0.482673 0.836015
vn -0.260971 0.907129 0.330168
vn -0.260971 0.907129 0.330168
vn -0.260971 0.907129 -0.330168
vn -0.260971 0.907129 -0.330168
vn -0.260971 0.482673 -0.836015
vn -0.260971 0.482673 -0.836015
vn -0.260971 -0.167631 -0.950681
vn -0.260971 -0.167631 -0.950681
vn -0.260971 -0.739498 -0.620513
vn -0.260971 -0.739498 -0.620513
vn -0.260971 -0.965347 -0.000000
vn -0.260971 -0.965347 -0.000000
vn -0.260971 -0.739498 0.620513
vn -0.260971 -0.739498 0.620513
vn -0.260971 -0.167631 0.950681
vn -0.260971 -0.167631 0.950681
vn -0.260971 0.482673 0.836015
vn -0.260971 0.482673 0.836015
vn -0.260971 0.907129 0.330168
vn -0.260971 0.907129 0.330168
vn -0.260971 0.907129 -0.330168
vn -0.260971 0.907129 -0.330168
vn -0.260971 0.482673 -0.836015
vn -0.260971 0.482673 -0.836015
vn -0.260971 -0.167631 -0.950681
vn -0.260971 -0.167631 -0.950681
vn -0.260971 -0.739498 -0.620513
vn -0.260971 -0.739498 -0.620513
vn -0.260971 -0.965347 0.000000
vn -0.260971 -0.965347 0.000000
vn -0.260971 -0.739499 0.620513
vn -0.260971 -0.739499 0.620513
vn -0.260971 -0.167631 0.950681
vn -0.260971 -0.167631 0.950681
vn -0.260971 0.482673 0.836015
vn -0.260971 0.482673 0.836015
vn -0.260971 0.907129 0.330168
vn -0.260971 0.907129 0.330168
vn -0.260971 0.907129 -0.330168
vn -0.260971 0.907129 -0.330168
vn 1.000000 -0.000000 0.000000
vn -0.260971 0.482673 -0.836015
vn -0.260971 -0.167631 -0.950681
vn -0.260971 -0.739499 -0.620513
vn -0.260971 -0.965347 0.000000
vn -0.260971 -0.739498 0.620513
vn -0.260971 -0.167631 0.950681
vn -0.260971 0.482673 0.836015
vn -0.260971 0.907129 0.330168
vn -0.260971 0.907130 -0.330167
s 1
g pCone1
usemtl initialShadingGroup
f 1/1/1 2/2/2 11/11/3 10/10/4
f 2/2/2 3/3/5 12/12/6 11/11/3
f 3/3/5 4/4/7 13/13/8 12/12/6
f 4/4/7 5/5/9 14/14/10 13/13/8
f 5/5/9 6/6/11 15/15/12 14/14/10
f 6/6/11 7/7/13 16/16/14 15/15/12
f 7/7/13 8/8/15 17/17/16 16/16/14
f 8/8/15 9/9/17 18/18/18 17/17/16
f 9/9/17 1/1/1 10/10/4 18/18/18
f 10/10/4 11/11/3 20/20/19 19/19/20
f 11/11/3 12/12/6 21/21/21 20/20/19
f 12/12/6 13/13/8 22/22/22 21/21/21
f 13/13/8 14/14/10 23/23/23 22/22/22
f 14/14/10 15/15/12 24/24/24 23/23/23
f 15/15/12 16/16/14 25/25/25 24/24/24
f 16/16/14 17/17/16 26/26/26 25/25/25
f 17/17/16 18/18/18 27/27/27 26/26/26
f 18/18/18 10/10/4 19/19/20 27/27/27
s 2
f 19/28/28 20/29/29 29/39/30 28/38/31
s 3
f 20/29/32 21/30/33 30/40/34 29/39/35
s 4
f 21/30/36 22/31/37 31/41/38 30/40/39
s 5
f 22/31/40 23/32/41 32/42/42 31/41/43
s 6
f 23/32/44 24/33/45 33/43/46 32/42/47
s 7
f 24/33/48 25/34/49 34/44/50 33/43/51
s 8
f 25/34/52 26/35/53 35/45/54 34/44/55
s 9
f 26/35/56 27/36/57 36/46/58 35/45/59
s 10
f 27/36/60 19/37/61 28/47/62 36/46/63
s 2
f 28/38/31 29/39/30 38/49/64 37/48/65
s 3
f 29/39/35 30/40/34 39/50/66 38/49/67
s 4
f 30/40/39 31/41/38 40/51/68 39/50/69
s 5
f 31/41/43 32/42/42 41/52/70 40/51/71
s 6
f 32/42/47 33/43/46 42/53/72 41/52/73
s 7
f 33/43/51 34/44/50 43/54/74 42/53/75
s 8
f 34/44/55 35/45/54 44/55/76 43/54/77
s 9
f 35/45/59 36/46/58 45/56/78 44/55/79
s 10
f 36/46/63 28/47/62 37/57/80 45/56/81
s 2
f 37/48/65 38/49/64 47/59/82 46/58/83
s 3
f 38/49/67 39/50/66 48/60/84 47/59/85
s 4
f 39/50/69 40/51/68 49/61/86 48/60/87
s 5
f 40/51/71 41/52/70 50/62/88 49/61/89
s 6
f 41/52/73 42/53/72 51/63/90 50/62/91
s 7
f 42/53/75 43/54/74 52/64/92 51/63/93
s 8
f 43/54/77 44/55/76 53/65/94 52/64/95
s 9
f 44/55/79 45/56/78 54/66/96 53/65/97
s 10
f 45/56/81 37/57/80 46/67/98 54/66/99
s 2
f 46/58/83 47/59/82 56/69/100 55/68/101
s 3
f 47/59/85 48/60/84 57/70/102 56/69/103
s 4
f 48/60/87 49/61/86 58/71/104 57/70/105
s 5
f 49/61/89 50/62/88 59/72/106 58/71/107
s 6
f 50/62/91 51/63/90 60/73/108 59/72/109
s 7
f 51/63/93 52/64/92 61/74/110 60/73/111
s 8
f 52/64/95 53/65/94 62/75/112 61/74/113
s 9
f 53/65/97 54/66/96 63/76/114 62/75/115
s 10
f 54/66/99 46/67/98 55/77/116 63/76/117
s 2
f 55/68/101 56/69/100 65/79/118 64/78/119
s 3
f 56/69/103 57/70/102 66/80/120 65/79/121
s 4
f 57/70/105 58/71/104 67/81/122 66/80/123
s 5
f 58/71/107 59/72/106 68/82/124 67/81/125
s 6
f 59/72/109 60/73/108 69/83/126 68/82/127
s 7
f 60/73/111 61/74/110 70/84/128 69/83/129
s 8
f 61/74/113 62/75/112 71/85/130 70/84/131
s 9
f 62/75/115 63/76/114 72/86/132 71/85/133
s 10
f 63/76/117 55/77/116 64/87/134 72/86/135
s 2
f 64/78/119 65/79/118 74/89/136 73/88/137
s 3
f 65/79/121 66/80/120 75/90/138 74/89/139
s 4
f 66/80/123 67/81/122 76/91/140 75/90/141
s 5
f 67/81/125 68/82/124 77/92/142 76/91/143
s 6
f 68/82/127 69/83/126 78/93/144 77/92/145
s 7
f 69/83/129 70/84/128 79/94/146 78/93/147
s 8
f 70/84/131 71/85/130 80/95/148 79/94/149
s 9
f 71/85/133 72/86/132 81/96/150 80/95/151
s 10
f 72/86/135 64/87/134 73/97/152 81/96/153
s 1
f 2/2/2 1/1/1 82/98/154
f 3/3/5 2/2/2 82/98/154
f 4/4/7 3/3/5 82/98/154
f 5/5/9 4/4/7 82/98/154
f 6/6/11 5/5/9 82/98/154
f 7/7/13 6/6/11 82/98/154
f 8/8/15 7/7/13 82/98/154
f 9/9/17 8/8/15 82/98/154
f 1/1/1 9/9/17 82/98/154
s 2
f 73/88/137 74/89/136 83/99/155
s 3
f 74/89/139 75/90/138 83/99/156
s 4
f 75/90/141 76/91/140 83/99/157
s 5
f 76/91/143 77/92/142 83/99/158
s 6
f 77/92/145 78/93/144 83/99/159
s 7
f 78/93/147 79/94/146 83/99/160
s 8
f 79/94/149 80/95/148 83/99/161
s 9
f 80/95/151 81/96/150 83/99/162
s 10
f 81/96/153 73/97/152 83/99/163
